<svg width="20" height="20" viewBox="0 0 20 20" fill="none" xmlns="http://www.w3.org/2000/svg">
<g clip-path="url(#clip0_1_492)">
<path d="M18.4917 17.5781C18.5077 17.6944 18.4978 17.8126 18.4627 17.9247C18.4276 18.0368 18.3682 18.1401 18.2885 18.2275C18.2089 18.3149 18.1109 18.3843 18.0013 18.4309C17.8916 18.4776 17.773 18.5003 17.6536 18.4976H2.05843C1.939 18.5003 1.82039 18.4776 1.71078 18.4309C1.60116 18.3843 1.50315 18.3149 1.42349 18.2275C1.34382 18.1401 1.28441 18.0368 1.24933 17.9247C1.21425 17.8126 1.20434 17.6944 1.22029 17.5781L2.50032 6.18146C2.53443 5.93108 2.65847 5.70088 2.85011 5.5323C3.04175 5.36373 3.2884 5.26786 3.54565 5.26196H16.1664C16.4235 5.26791 16.6699 5.36383 16.8613 5.53243C17.0527 5.70102 17.1765 5.9312 17.2103 6.18146L18.4917 17.5781Z" stroke="#16193A" stroke-linecap="round" stroke-linejoin="round"/>
<path d="M13.7146 7.62574V5.28752C13.7144 4.28306 13.3079 3.3198 12.5843 2.60955C11.8608 1.89929 10.8795 1.50019 9.85632 1.5C9.34965 1.5 8.84793 1.59796 8.37983 1.7883C7.91172 1.97864 7.48639 2.25763 7.12811 2.60934C6.76984 2.96104 6.48564 3.37858 6.29174 3.8381C6.09785 4.29762 5.99805 4.79014 5.99805 5.28752V7.62574" stroke="#16193A" stroke-linecap="round" stroke-linejoin="round"/>
</g>
<defs>
<clipPath id="clip0_1_492">
<rect width="19" height="19" fill="white" transform="translate(0.5 0.5)"/>
</clipPath>
</defs>
</svg>
