<svg width="141" height="206" viewBox="0 0 141 206" fill="none" xmlns="http://www.w3.org/2000/svg">
<g clip-path="url(#clip0_1_295)">
<path fill-rule="evenodd" clip-rule="evenodd" d="M28.6233 47.5294L30.4441 47.7373L30.5101 47.4519L24.6918 46.1057L24.8047 45.6177L27.2825 45.9582L27.4291 45.7011C26.9878 45.5505 26.5708 45.3364 26.1913 45.0655C25.6098 44.5235 24.6366 43.8327 24.6682 43.2775C24.9714 39.7488 25.3362 36.2052 25.9951 32.7297C27.3684 25.2871 28.9198 17.8275 30.4006 10.3807C30.5263 9.83746 30.652 9.29426 30.7649 8.80627C32.9802 9.31875 35.0484 9.79728 37.1256 10.2779C41.6451 11.4205 46.1325 12.7012 50.6867 13.7354C55.6226 14.8774 60.6097 15.7984 65.5972 16.7584C66.8511 16.9903 68.1632 16.8865 69.3959 17.0843C70.8873 17.3324 72.3425 17.8243 73.8352 18.1115C76.5412 18.5532 79.269 18.9029 81.9895 19.2802C82.155 19.3185 82.4125 19.378 82.4804 19.3355C82.5483 19.2931 82.6707 18.8072 82.7071 18.8157C85.0052 19.3474 87.29 19.9342 89.6384 20.332C92.565 20.8248 95.528 21.1611 98.4776 21.5137C103.026 22.0712 107.597 22.5275 112.137 23.1219C118.207 23.9249 124.265 24.78 130.311 25.6873C134.577 26.3347 138.829 27.0856 143.069 27.8436C147.775 28.6802 152.489 29.5282 157.168 30.4846C160.154 31.0978 163.082 31.9597 166.044 32.6353C169.803 33.5051 173.592 34.207 177.342 35.0747C192.122 38.4943 206.902 41.9139 221.683 45.3334C230.728 47.426 239.799 49.4051 248.896 51.2706C254.438 52.4268 260.035 53.3529 265.599 54.417C267.452 54.7779 269.275 55.2677 271.27 55.7292C271.24 56.1592 271.187 56.5873 271.109 57.0112C268.354 68.4154 265.599 79.8224 262.842 91.2324C262.527 92.5954 262.461 93.3463 260.404 92.8997C250.94 90.8652 241.36 89.3664 231.887 87.3689C221.028 85.0798 210.226 82.4641 199.403 79.9794C195.552 79.0885 191.7 78.1976 187.849 77.3061C183.997 76.4152 179.95 75.2849 175.94 74.3668C168.863 72.7292 161.75 71.2002 154.651 69.6547C148.869 68.4045 143.101 67.0894 137.286 66.0251C130.781 64.8403 124.23 63.8579 117.616 62.8519C112.935 62.1567 108.155 61.5549 103.416 60.9437C98.1194 60.2713 92.8153 59.6746 87.5251 58.9745C83.4555 58.4404 79.4023 57.7937 75.3394 57.2319C69.3262 56.3936 63.3009 55.6494 57.3045 54.7375C53.7866 54.2049 50.2936 53.5228 46.824 52.7395C42.2281 51.6762 37.7519 50.5145 33.2205 49.3399C31.6303 48.9721 30.0871 48.4017 28.5111 47.9303C28.5629 47.7483 28.5885 47.6378 28.6233 47.5294Z" fill="#16193A"/>
<path fill-rule="evenodd" clip-rule="evenodd" d="M234.241 203.93L230.307 203.02L231.199 203.683C231.178 203.775 231.157 203.867 231.138 203.949C229.51 203.66 227.866 203.444 226.261 203.054C223.506 202.378 220.77 201.647 218.052 200.864C215.014 199.977 212.011 198.932 208.951 198.098C206.081 197.318 203.141 196.754 200.252 196.018C194.643 194.517 189.079 192.87 183.468 191.378C180.925 190.693 178.312 190.311 175.756 189.681C169.687 188.2 163.644 186.656 157.582 185.147C149.893 183.222 142.181 181.399 134.522 179.384C129.457 178.048 124.449 176.463 119.425 174.99C115.109 173.72 110.785 172.448 106.476 171.149C102.856 170.051 99.2588 168.859 95.6862 167.809C94.4898 167.455 93.1741 167.49 91.9669 167.143C89.6966 166.491 87.4706 165.647 85.2282 165.002C84.1586 164.686 83.0028 164.7 81.9204 164.44C79.4666 163.873 77.0527 163.13 74.6206 162.509C72.7085 162.067 70.8055 161.627 68.9032 161.186C66.4487 160.618 64.0402 159.896 61.5815 159.347C60.0283 158.987 58.4145 158.847 56.844 158.561C56.2558 158.425 55.691 158.187 55.1092 158.024C52.6232 157.342 50.1607 156.559 47.6386 156.033C44.0205 155.264 40.3413 154.801 36.7367 154.016C33.1321 153.23 29.6805 152.16 26.1368 151.321C23.9951 150.825 21.7981 150.569 19.6408 150.099C15.5965 149.163 11.552 148.227 7.52118 147.149L11.6167 147.195C11.639 147.12 11.6568 147.043 11.67 146.964L4.92316 145.404C6.19808 144.079 4.22181 141.488 7.32119 141.108L5.85631 140.576C7.29961 130.152 8.75352 119.682 10.1786 109.002C14.0572 109.482 17.7451 109.782 21.2671 110.422C26.7131 111.411 32.1256 112.585 37.5162 113.813C41.6617 114.772 45.725 116.003 49.8909 116.957C55.6082 118.28 61.3742 119.391 67.1135 120.661C71.5164 121.68 75.9194 122.698 80.3223 123.717C88.5075 125.785 96.6862 127.894 104.859 130.044C109.258 131.207 113.613 132.515 117.981 133.768C121.976 134.916 125.95 136.155 129.967 137.211C139.306 139.676 148.652 142.086 158.003 144.444C167.15 146.764 176.409 149.023 185.61 151.316C189.557 152.297 193.509 153.251 197.437 154.276C204.653 156.149 211.881 158.015 219.074 159.99C224.994 161.612 230.879 163.38 236.776 165.056C237.688 165.33 238.582 165.663 239.451 166.053C242.034 167.232 242.003 167.245 241.418 170.106C239.186 180.642 236.962 191.18 234.744 201.718C234.604 202.404 234.441 203.065 234.241 203.93Z" fill="#16193A"/>
<path fill-rule="evenodd" clip-rule="evenodd" d="M261.396 113.748L254.651 142.899L251.131 143.297L251.067 143.825L254.262 144.875L253.563 147.895L250.441 147.91L252.986 149.469C251.92 149.348 251.335 149.32 250.77 149.209C246.408 148.393 242.094 147.201 237.692 146.803C230.429 146.093 223.57 143.72 216.466 142.28C211.842 141.337 207.253 139.955 202.635 138.819C192.39 136.306 182.139 133.805 171.882 131.316C168.398 130.51 164.914 129.704 161.443 128.677L163.128 128.553L163.194 128.267C160.28 127.593 157.357 126.917 154.443 126.243C149.247 124.973 144.082 123.603 138.872 122.388C128.021 119.877 117.155 117.396 106.276 114.943C101.422 113.821 96.5062 113.013 91.6317 111.982C87.1797 111.05 82.7616 109.93 78.2835 109.069C68.9298 107.225 59.553 105.521 50.1927 103.704C46.2337 102.944 42.2932 102.061 38.3513 101.227C33.394 100.177 28.4545 99.0923 23.4887 98.079C21.4116 97.7523 19.3546 97.3087 17.3274 96.7505L22.441 97.0414L22.4985 96.7929L17.3168 95.2057C17.46 94.0845 17.6197 92.7246 17.8049 91.2543L20.1851 91.6403C20.2216 91.5761 20.2617 91.5143 20.3054 91.4549C19.9888 91.2749 19.6596 90.8979 19.3788 90.9397C17.9946 91.1046 17.8434 90.2931 17.9723 89.2755C19.2267 79.4449 20.494 69.6142 21.7744 59.7831C21.8288 59.5474 21.9109 59.3189 22.019 59.1025C25.1967 59.6825 28.3319 60.1945 31.4374 60.8354C38.296 62.2477 45.1404 63.7634 52.0011 65.1664C64.0184 67.636 76.0678 69.9681 87.9973 72.5244C103.607 75.8352 119.198 79.1806 134.754 82.7211C150.31 86.2623 166.061 90.0907 181.692 93.8524C189.251 95.6693 196.767 97.6699 204.332 99.5074C212.263 101.43 220.242 103.189 228.211 105.119C236.179 107.05 243.965 108.765 251.796 110.79C254.946 111.49 258.008 112.654 261.396 113.748Z" fill="#16193A"/>
</g>
<defs>
<clipPath id="clip0_1_295">
<rect width="199.995" height="204.844" fill="white" transform="translate(0.502312 0.5)"/>
</clipPath>
</defs>
</svg>
