<svg width="181" height="175" viewBox="0 0 181 175" fill="none" xmlns="http://www.w3.org/2000/svg">
<g clip-path="url(#clip0_1_292)">
<path fill-rule="evenodd" clip-rule="evenodd" d="M145.257 174.045L149.053 170.663C149.085 171.556 149.117 171.858 149.151 172.31C149.912 171.666 150.637 171.011 151.354 170.353C151.753 170.023 152.121 169.664 152.456 169.277C153.309 168.31 154.083 167.284 154.772 166.207C159.395 158.236 162.094 149.527 165.025 140.892C166.496 136.557 168.312 132.341 169.865 128.024C170.945 124.998 171.705 121.863 172.861 118.87C174.643 114.263 176.785 109.787 178.478 105.152C179.328 102.822 179.952 100.465 179.048 97.6719C178.378 95.5355 179.022 93.0527 179.372 90.7869C180.895 81.0544 179.27 71.4278 176.6 61.8253C175.385 57.0549 173.264 52.4723 170.337 48.2929C165.705 41.9072 160.534 35.8646 153.875 31.1293C149.394 27.9616 144.719 25.0428 139.877 22.3899C136.914 20.8929 133.809 19.6736 130.61 18.7515C124.2 16.6476 117.741 14.7044 111.306 12.6809C107.131 11.4123 102.93 10.2589 98.738 9.04656C95.0764 7.98343 91.4259 6.91513 87.7714 5.86284L70.0634 0.78894L70.7222 1.27878L68.7547 1.05755L58.6434 33.2109C60.5239 33.8023 62.4697 34.4671 64.4366 35.0327C68.8794 36.2886 73.3297 37.5114 77.7872 38.7011C81.2994 39.6467 84.8474 40.4797 88.3561 41.4683C92.11 42.5164 95.824 43.6931 99.5656 44.7814C101.539 45.3578 103.554 45.7706 105.494 46.4246C113.35 49.0633 121.495 51.1918 128.273 56.1411C132.836 59.4755 137.407 63.0676 139.101 68.4239C140.28 72.3807 141.111 76.4 141.589 80.4421C141.948 83.2608 141.933 86.0889 141.547 88.8641C141.088 92.6762 140.306 96.4319 139.208 100.098C137.81 104.543 135.815 108.801 134.199 113.195C133.21 115.87 132.485 118.645 131.55 121.337C130.432 124.456 129.127 127.518 127.981 130.629C127.685 131.569 127.243 131.73 126.185 131.389C121.283 129.847 116.405 128.234 111.466 126.84C105.546 125.172 99.5532 123.738 93.6206 122.111C88.7231 120.774 83.8851 119.217 78.9748 117.92C70.8934 115.777 62.7808 113.764 54.6853 111.695C50.352 110.589 46.044 109.402 41.6942 108.378C34.4828 106.676 27.2489 105.108 20.0325 103.422C15.1443 102.273 10.2914 101.012 5.4158 99.823C-1.52581 98.1348 -8.48113 96.5219 -15.4076 94.785C-19.2037 93.8385 -22.9658 92.7527 -26.7278 91.6669C-35.115 89.2505 -43.4872 86.7853 -51.854 84.366C-52.786 84.0072 -53.7786 83.8308 -54.7662 83.8478C-55.1118 83.9778 -55.419 84.1755 -55.6672 84.4278C-55.9155 84.6801 -56.0991 84.9813 -56.2059 85.3119C-57.76 89.3193 -59.1051 93.4103 -60.7191 97.3901C-62.619 102.092 -64.757 106.773 -66.7689 111.458C-67.283 112.656 -67.6927 113.897 -68.2823 115.46C-64.1648 116.755 -60.3091 118.136 -56.3701 119.313C-51.8224 120.672 -47.2394 121.919 -42.6513 123.15C-37.1619 124.629 -31.6522 126.043 -26.1426 127.458C-23.2031 128.232 -20.2839 129.071 -17.3382 129.794C-10.4576 131.49 -3.56442 133.145 3.3262 134.808C7.82492 135.888 12.3326 136.969 16.844 138.008C20.6335 138.882 24.4432 139.629 28.2176 140.552C32.2937 141.542 36.3676 142.664 40.3919 143.726C42.1101 144.178 43.83 144.657 45.554 145.093L60.6745 148.894C63.1379 149.501 65.6189 150.052 68.0735 150.718C70.7822 151.446 73.4944 152.352 76.2278 153.096C82.337 154.753 88.4831 156.323 94.5993 157.99C97.8674 158.903 101.087 160.031 104.34 161.054C108.669 162.362 113.033 163.558 117.353 164.925C122.994 166.699 128.588 168.626 134.22 170.459C137.986 171.784 141.87 172.979 145.257 174.045ZM127.455 53.9142L127.181 54.2255L120.669 50.7376C120.702 50.6331 120.779 50.5426 120.839 50.4465L127.455 53.9142Z" fill="#FFDE40"/>
</g>
<defs>
<clipPath id="clip0_1_292">
<rect width="199.99" height="174.109" fill="white" transform="translate(-19.4953 0.5)"/>
</clipPath>
</defs>
</svg>
