<svg width="201" height="161" viewBox="0 0 201 161" fill="none" xmlns="http://www.w3.org/2000/svg">
<g clip-path="url(#clip0_1_300)">
<path fill-rule="evenodd" clip-rule="evenodd" d="M326.055 68.3142C324.154 65.7752 322.475 63.2788 320.54 60.996C318.321 58.39 315.715 56.1097 313.568 53.4598C308.21 46.7896 300.831 42.0385 292.541 39.921C289.466 38.9693 286.324 38.2461 283.142 37.7571C280.627 37.529 278.092 37.715 275.638 38.3081C270.658 39.4185 265.571 40.415 260.882 42.2889C253.518 45.0637 246.662 49.0365 240.593 54.0466C236.724 57.3294 232.912 60.5353 230.094 64.734C224.762 72.7596 218.499 80.0365 212.386 87.4453C211.666 88.3423 210.973 89.3614 210.351 90.3286C207.317 95.0314 203.565 99.2306 199.232 102.773C193.396 107.508 185.983 109.856 178.484 109.342C173.093 109.073 167.887 107.291 163.462 104.2C159.222 101.198 155.214 97.8313 150.831 95.0544C145.932 91.8349 140.802 88.9812 135.483 86.5155C129.021 83.5324 122.031 81.8632 114.917 81.6058C110.295 81.5054 106.02 82.7622 101.64 83.9599C96.2664 85.4439 91.7691 88.6739 86.8594 91.0844C80.7455 94.0195 75.0676 97.788 69.9878 102.282C66.1077 105.761 62.2616 109.269 58.3814 112.747C50.953 119.419 44.7344 127.182 38.4699 134.864C35.7751 138.17 33.7246 142.014 31.4489 145.632C28.7938 149.859 26.2371 154.156 23.5956 158.361C23.0594 159.093 22.4693 159.784 21.8301 160.429C21.3065 159.773 20.9165 159.344 20.5626 158.872C14.1495 149.37 7.75976 139.864 1.39345 130.352C1.12212 130.024 0.976519 129.609 0.982617 129.183C0.988715 128.757 1.14612 128.346 1.42674 128.026C5.12786 122.259 8.59408 116.306 12.5175 110.711C15.4901 106.573 18.6985 102.61 22.1268 98.8412C25.8426 94.4687 29.7903 90.2984 33.9528 86.3487C40.3288 80.5283 46.932 74.943 53.6843 69.5723C57.7613 66.4328 62.0394 63.5637 66.4912 60.9833C68.9254 59.5202 71.8264 58.7074 74.451 57.478C77.7854 55.9247 80.9582 54.1864 84.2362 52.6273C90.268 49.7538 96.6768 47.7482 103.271 46.6705C116.902 44.3387 130.053 46.2828 142.933 51.2224C152.399 54.9206 161.458 59.5886 169.963 65.152C172.984 67.1008 175.843 69.3616 178.947 71.5587C180.516 69.4791 182.056 67.387 183.647 65.3207C186.268 61.9204 188.901 58.5269 191.544 55.1401L198.78 45.8707C205.006 37.709 212.253 30.3783 220.342 24.0574C228.336 18.0405 237.039 13.0278 246.255 9.13156C254.989 5.34337 264.272 3.27311 273.661 1.88752C281.134 0.813047 288.746 1.26239 296.04 3.20871C303.846 5.20357 311.513 7.68959 318.627 11.6147C325.021 15.1827 330.76 19.8154 335.595 25.3134C340.04 30.2663 344.493 35.2171 348.878 40.2296C350.461 42.048 350.398 42.3841 348.736 44.1719C341.719 51.7669 334.685 59.3413 327.634 66.8946C327.185 67.3542 326.653 67.7758 326.055 68.3142Z" fill="#F15A22"/>
</g>
<defs>
<clipPath id="clip0_1_300">
<rect width="349.987" height="159.562" fill="white" transform="translate(0.506558 0.9375)"/>
</clipPath>
</defs>
</svg>
